<svg width="30" height="31" viewBox="0 0 30 31" fill="none" xmlns="http://www.w3.org/2000/svg">
<path fill-rule="evenodd" clip-rule="evenodd" d="M7 16.5H13C13.55 16.5 14 16.05 14 15.5V7.5C14 6.95 13.55 6.5 13 6.5H7C6.45 6.5 6 6.95 6 7.5V15.5C6 16.05 6.45 16.5 7 16.5ZM7 24.5H13C13.55 24.5 14 24.05 14 23.5V19.5C14 18.95 13.55 18.5 13 18.5H7C6.45 18.5 6 18.95 6 19.5V23.5C6 24.05 6.45 24.5 7 24.5ZM17 24.5H23C23.55 24.5 24 24.05 24 23.5V15.5C24 14.95 23.55 14.5 23 14.5H17C16.45 14.5 16 14.95 16 15.5V23.5C16 24.05 16.45 24.5 17 24.5ZM16 7.5V11.5C16 12.05 16.45 12.5 17 12.5H23C23.55 12.5 24 12.05 24 11.5V7.5C24 6.95 23.55 6.5 23 6.5H17C16.45 6.5 16 6.95 16 7.5Z" fill="#C3CAD9"/>
</svg>
