<svg width="30" height="31" viewBox="0 0 30 31" fill="none" xmlns="http://www.w3.org/2000/svg">
<path fill-rule="evenodd" clip-rule="evenodd" d="M7 12.5C7.55 12.5 8 12.05 8 11.5C8 10.95 7.55 10.5 7 10.5C6.45 10.5 6 10.95 6 11.5C6 12.05 6.45 12.5 7 12.5ZM8 15.5C8 16.05 7.55 16.5 7 16.5C6.45 16.5 6 16.05 6 15.5C6 14.95 6.45 14.5 7 14.5C7.55 14.5 8 14.95 8 15.5ZM8 19.5C8 20.05 7.55 20.5 7 20.5C6.45 20.5 6 20.05 6 19.5C6 18.95 6.45 18.5 7 18.5C7.55 18.5 8 18.95 8 19.5ZM24 15.5C24 16.05 23.55 16.5 23 16.5H11C10.45 16.5 10 16.05 10 15.5C10 14.95 10.45 14.5 11 14.5H23C23.55 14.5 24 14.95 24 15.5ZM23 20.5C23.55 20.5 24 20.05 24 19.5C24 18.95 23.55 18.5 23 18.5H11C10.45 18.5 10 18.95 10 19.5C10 20.05 10.45 20.5 11 20.5H23ZM11 12.5C10.45 12.5 10 12.05 10 11.5C10 10.95 10.45 10.5 11 10.5H23C23.55 10.5 24 10.95 24 11.5C24 12.05 23.55 12.5 23 12.5H11Z" fill="#C3CAD9"/>
</svg>
