<svg width="24" height="25" viewBox="0 0 24 25" fill="none" xmlns="http://www.w3.org/2000/svg">
<path fill-rule="evenodd" clip-rule="evenodd" d="M14.8005 14.1005H14.1685L13.9445 13.8845C14.9045 12.7645 15.4005 11.2365 15.1285 9.61249C14.7525 7.38849 12.8965 5.61249 10.6565 5.34049C7.27249 4.92449 4.42449 7.77249 4.84049 11.1565C5.11249 13.3965 6.88849 15.2525 9.11249 15.6285C10.7365 15.9005 12.2645 15.4045 13.3845 14.4445L13.6005 14.6685V15.3005L17.0005 18.7005C17.3285 19.0285 17.8645 19.0285 18.1925 18.7005C18.5205 18.3725 18.5205 17.8365 18.1925 17.5085L14.8005 14.1005ZM10.0005 14.1005C8.00849 14.1005 6.40049 12.4925 6.40049 10.5005C6.40049 8.50849 8.00849 6.90049 10.0005 6.90049C11.9925 6.90049 13.6005 8.50849 13.6005 10.5005C13.6005 12.4925 11.9925 14.1005 10.0005 14.1005Z" fill="#C3CAD9"/>
</svg>
