<svg width="30" height="31" viewBox="0 0 30 31" fill="none" xmlns="http://www.w3.org/2000/svg">
<path fill-rule="evenodd" clip-rule="evenodd" d="M16 12.5H6C5.45 12.5 5 12.95 5 13.5C5 14.05 5.45 14.5 6 14.5H16C16.55 14.5 17 14.05 17 13.5C17 12.95 16.55 12.5 16 12.5ZM16 8.5H6C5.45 8.5 5 8.95 5 9.5C5 10.05 5.45 10.5 6 10.5H16C16.55 10.5 17 10.05 17 9.5C17 8.95 16.55 8.5 16 8.5ZM6 18.5H12C12.55 18.5 13 18.05 13 17.5C13 16.95 12.55 16.5 12 16.5H6C5.45 16.5 5 16.95 5 17.5C5 18.05 5.45 18.5 6 18.5ZM25.21 14.71L25.3 14.8C25.69 15.19 25.69 15.82 25.3 16.21L19.72 21.8C19.33 22.19 18.7 22.19 18.31 21.8L15.22 18.71C15.0327 18.5232 14.9275 18.2695 14.9275 18.005C14.9275 17.7405 15.0327 17.4868 15.22 17.3L15.31 17.21C15.7 16.82 16.33 16.82 16.72 17.21L19.02 19.51L23.8 14.72C24.18 14.32 24.82 14.32 25.21 14.71V14.71Z" fill="#C3CAD9"/>
</svg>
