<svg width="50" height="51" viewBox="0 0 50 51" fill="none" xmlns="http://www.w3.org/2000/svg">
<g filter="url(#filter0_d_1_9709)">
<rect x="5" y="3.5" width="40" height="40" rx="20" fill="white"/>
<path fill-rule="evenodd" clip-rule="evenodd" d="M25 23.5C27.0627 23.5 28.7333 21.8293 28.7333 19.7667C28.7333 17.704 27.0627 16.0333 25 16.0333C22.9373 16.0333 21.2667 17.704 21.2667 19.7667C21.2667 21.8293 22.9373 23.5 25 23.5ZM25 25.3667C22.508 25.3667 17.5333 26.6173 17.5333 29.1V30.0333C17.5333 30.5467 17.9533 30.9667 18.4667 30.9667H31.5333C32.0467 30.9667 32.4667 30.5467 32.4667 30.0333V29.1C32.4667 26.6173 27.492 25.3667 25 25.3667Z" fill="#C3CAD9"/>
</g>
<defs>
<filter id="filter0_d_1_9709" x="0" y="0.5" width="50" height="50" filterUnits="userSpaceOnUse" color-interpolation-filters="sRGB">
<feFlood flood-opacity="0" result="BackgroundImageFix"/>
<feColorMatrix in="SourceAlpha" type="matrix" values="0 0 0 0 0 0 0 0 0 0 0 0 0 0 0 0 0 0 127 0" result="hardAlpha"/>
<feOffset dy="2"/>
<feGaussianBlur stdDeviation="2.5"/>
<feColorMatrix type="matrix" values="0 0 0 0 0.14902 0 0 0 0 0.2 0 0 0 0 0.301961 0 0 0 0.03 0"/>
<feBlend mode="normal" in2="BackgroundImageFix" result="effect1_dropShadow_1_9709"/>
<feBlend mode="normal" in="SourceGraphic" in2="effect1_dropShadow_1_9709" result="shape"/>
</filter>
</defs>
</svg>
