<svg width="60" height="61" viewBox="0 0 60 61" fill="none" xmlns="http://www.w3.org/2000/svg">
<g filter="url(#filter0_d_1_9630)">
<rect x="5" y="3.5" width="50" height="50" rx="25" fill="white"/>
<path fill-rule="evenodd" clip-rule="evenodd" d="M29.5865 38C30.6865 38 31.5865 37.1 31.5865 36H27.5865C27.5865 37.1 28.4765 38 29.5865 38ZM35.5865 32V27C35.5865 23.93 33.9465 21.36 31.0865 20.68V20C31.0865 19.17 30.4165 18.5 29.5865 18.5C28.7565 18.5 28.0865 19.17 28.0865 20V20.68C25.2165 21.36 23.5865 23.92 23.5865 27V32L22.2965 33.29C21.6665 33.92 22.1065 35 22.9965 35H36.1665C37.0565 35 37.5065 33.92 36.8765 33.29L35.5865 32Z" fill="#C3CAD9"/>
</g>
<defs>
<filter id="filter0_d_1_9630" x="0" y="0.5" width="60" height="60" filterUnits="userSpaceOnUse" color-interpolation-filters="sRGB">
<feFlood flood-opacity="0" result="BackgroundImageFix"/>
<feColorMatrix in="SourceAlpha" type="matrix" values="0 0 0 0 0 0 0 0 0 0 0 0 0 0 0 0 0 0 127 0" result="hardAlpha"/>
<feOffset dy="2"/>
<feGaussianBlur stdDeviation="2.5"/>
<feColorMatrix type="matrix" values="0 0 0 0 0.14902 0 0 0 0 0.2 0 0 0 0 0.301961 0 0 0 0.03 0"/>
<feBlend mode="normal" in2="BackgroundImageFix" result="effect1_dropShadow_1_9630"/>
<feBlend mode="normal" in="SourceGraphic" in2="effect1_dropShadow_1_9630" result="shape"/>
</filter>
</defs>
</svg>
