<svg width="60" height="61" viewBox="0 0 60 61" fill="none" xmlns="http://www.w3.org/2000/svg">
<g filter="url(#filter0_d_1_9629)">
<rect x="5" y="3.5" width="50" height="50" rx="25" fill="white"/>
<path fill-rule="evenodd" clip-rule="evenodd" d="M30 18.5C24.47 18.5 20 22.97 20 28.5C20 34.03 24.47 38.5 30 38.5C35.53 38.5 40 34.03 40 28.5C40 22.97 35.53 18.5 30 18.5ZM34.3 32.8C33.91 33.19 33.28 33.19 32.89 32.8L30 29.91L27.11 32.8C26.72 33.19 26.09 33.19 25.7 32.8C25.5127 32.6132 25.4075 32.3595 25.4075 32.095C25.4075 31.8305 25.5127 31.5768 25.7 31.39L28.59 28.5L25.7 25.61C25.5127 25.4232 25.4075 25.1695 25.4075 24.905C25.4075 24.6405 25.5127 24.3868 25.7 24.2C26.09 23.81 26.72 23.81 27.11 24.2L30 27.09L32.89 24.2C33.28 23.81 33.91 23.81 34.3 24.2C34.69 24.59 34.69 25.22 34.3 25.61L31.41 28.5L34.3 31.39C34.68 31.77 34.68 32.41 34.3 32.8Z" fill="#C3CAD9"/>
</g>
<defs>
<filter id="filter0_d_1_9629" x="0" y="0.5" width="60" height="60" filterUnits="userSpaceOnUse" color-interpolation-filters="sRGB">
<feFlood flood-opacity="0" result="BackgroundImageFix"/>
<feColorMatrix in="SourceAlpha" type="matrix" values="0 0 0 0 0 0 0 0 0 0 0 0 0 0 0 0 0 0 127 0" result="hardAlpha"/>
<feOffset dy="2"/>
<feGaussianBlur stdDeviation="2.5"/>
<feColorMatrix type="matrix" values="0 0 0 0 0.14902 0 0 0 0 0.2 0 0 0 0 0.301961 0 0 0 0.03 0"/>
<feBlend mode="normal" in2="BackgroundImageFix" result="effect1_dropShadow_1_9629"/>
<feBlend mode="normal" in="SourceGraphic" in2="effect1_dropShadow_1_9629" result="shape"/>
</filter>
</defs>
</svg>
