<svg width="60" height="61" viewBox="0 0 60 61" fill="none" xmlns="http://www.w3.org/2000/svg">
<g filter="url(#filter0_d_1_9633)">
<rect x="5" y="3.5" width="50" height="50" rx="25" fill="white"/>
<path fill-rule="evenodd" clip-rule="evenodd" d="M22 34.5H38C38.55 34.5 39 34.05 39 33.5C39 32.95 38.55 32.5 38 32.5H22C21.45 32.5 21 32.95 21 33.5C21 34.05 21.45 34.5 22 34.5ZM22 29.5H38C38.55 29.5 39 29.05 39 28.5C39 27.95 38.55 27.5 38 27.5H22C21.45 27.5 21 27.95 21 28.5C21 29.05 21.45 29.5 22 29.5ZM21 23.5C21 24.05 21.45 24.5 22 24.5H38C38.55 24.5 39 24.05 39 23.5C39 22.95 38.55 22.5 38 22.5H22C21.45 22.5 21 22.95 21 23.5Z" fill="#C3CAD9"/>
</g>
<defs>
<filter id="filter0_d_1_9633" x="0" y="0.5" width="60" height="60" filterUnits="userSpaceOnUse" color-interpolation-filters="sRGB">
<feFlood flood-opacity="0" result="BackgroundImageFix"/>
<feColorMatrix in="SourceAlpha" type="matrix" values="0 0 0 0 0 0 0 0 0 0 0 0 0 0 0 0 0 0 127 0" result="hardAlpha"/>
<feOffset dy="2"/>
<feGaussianBlur stdDeviation="2.5"/>
<feColorMatrix type="matrix" values="0 0 0 0 0.14902 0 0 0 0 0.2 0 0 0 0 0.301961 0 0 0 0.03 0"/>
<feBlend mode="normal" in2="BackgroundImageFix" result="effect1_dropShadow_1_9633"/>
<feBlend mode="normal" in="SourceGraphic" in2="effect1_dropShadow_1_9633" result="shape"/>
</filter>
</defs>
</svg>
