<svg width="30" height="31" viewBox="0 0 30 31" fill="none" xmlns="http://www.w3.org/2000/svg">
<path fill-rule="evenodd" clip-rule="evenodd" d="M20 10.5H17C16.45 10.5 16 10.95 16 11.5C16 12.05 16.45 12.5 17 12.5H20C21.65 12.5 23 13.85 23 15.5C23 17.15 21.65 18.5 20 18.5H17C16.45 18.5 16 18.95 16 19.5C16 20.05 16.45 20.5 17 20.5H20C22.76 20.5 25 18.26 25 15.5C25 12.74 22.76 10.5 20 10.5ZM11 15.5C11 16.05 11.45 16.5 12 16.5H18C18.55 16.5 19 16.05 19 15.5C19 14.95 18.55 14.5 18 14.5H12C11.45 14.5 11 14.95 11 15.5ZM13 18.5H10C8.35 18.5 7 17.15 7 15.5C7 13.85 8.35 12.5 10 12.5H13C13.55 12.5 14 12.05 14 11.5C14 10.95 13.55 10.5 13 10.5H10C7.24 10.5 5 12.74 5 15.5C5 18.26 7.24 20.5 10 20.5H13C13.55 20.5 14 20.05 14 19.5C14 18.95 13.55 18.5 13 18.5Z" fill="#C3CAD9"/>
</svg>
