<svg width="30" height="31" viewBox="0 0 30 31" fill="none" xmlns="http://www.w3.org/2000/svg">
<path fill-rule="evenodd" clip-rule="evenodd" d="M14.99 5.5C9.47 5.5 5 9.98 5 15.5C5 21.02 9.47 25.5 14.99 25.5C20.52 25.5 25 21.02 25 15.5C25 9.98 20.52 5.5 14.99 5.5ZM15 23.5C10.58 23.5 7 19.92 7 15.5C7 11.08 10.58 7.5 15 7.5C19.42 7.5 23 11.08 23 15.5C23 19.92 19.42 23.5 15 23.5ZM14.78 10.5H14.72C14.32 10.5 14 10.82 14 11.22V15.94C14 16.29 14.18 16.62 14.49 16.8L18.64 19.29C18.98 19.49 19.42 19.39 19.62 19.05C19.83 18.71 19.72 18.26 19.37 18.06L15.5 15.76V11.22C15.5 10.82 15.18 10.5 14.78 10.5V10.5Z" fill="#C3CAD9"/>
</svg>
