<svg width="30" height="31" viewBox="0 0 30 31" fill="none" xmlns="http://www.w3.org/2000/svg">
<path fill-rule="evenodd" clip-rule="evenodd" d="M23 5.5H7C5.9 5.5 5 6.4 5 7.5V19.5C5 20.6 5.9 21.5 7 21.5H21L25 25.5V7.5C25 6.4 24.1 5.5 23 5.5ZM20 17.5H10C9.45 17.5 9 17.05 9 16.5C9 15.95 9.45 15.5 10 15.5H20C20.55 15.5 21 15.95 21 16.5C21 17.05 20.55 17.5 20 17.5ZM20 14.5H10C9.45 14.5 9 14.05 9 13.5C9 12.95 9.45 12.5 10 12.5H20C20.55 12.5 21 12.95 21 13.5C21 14.05 20.55 14.5 20 14.5ZM20 11.5H10C9.45 11.5 9 11.05 9 10.5C9 9.95 9.45 9.5 10 9.5H20C20.55 9.5 21 9.95 21 10.5C21 11.05 20.55 11.5 20 11.5Z" fill="#C3CAD9"/>
</svg>
