<svg width="30" height="31" viewBox="0 0 30 31" fill="none" xmlns="http://www.w3.org/2000/svg">
<path fill-rule="evenodd" clip-rule="evenodd" d="M20.2539 20H9.67393C7.58393 20 5.72393 18.47 5.52393 16.39C5.29393 14.01 7.16393 12 9.50393 12H21.8639C23.1739 12 24.3639 12.94 24.4939 14.24C24.6439 15.74 23.4739 17 22.0039 17H11.5039C10.9539 17 10.5039 16.55 10.5039 16C10.5039 15.45 10.9539 15 11.5039 15H20.2539C20.6639 15 21.0039 14.66 21.0039 14.25C21.0039 13.84 20.6639 13.5 20.2539 13.5H11.6439C10.3339 13.5 9.14393 14.44 9.01393 15.74C8.86393 17.24 10.0339 18.5 11.5039 18.5H21.8339C23.9239 18.5 25.7839 16.97 25.9839 14.89C26.2139 12.5 24.3439 10.5 22.0039 10.5H9.73393C6.86393 10.5 4.29393 12.6 4.02393 15.46C3.72393 18.75 6.28393 21.5 9.50393 21.5H20.2539C20.6639 21.5 21.0039 21.16 21.0039 20.75C21.0039 20.34 20.6639 20 20.2539 20Z" fill="#C3CAD9"/>
</svg>
