<svg width="30" height="31" viewBox="0 0 30 31" fill="none" xmlns="http://www.w3.org/2000/svg">
<path fill-rule="evenodd" clip-rule="evenodd" d="M22 7.5H21V6.5C21 5.95 20.55 5.5 20 5.5C19.45 5.5 19 5.95 19 6.5V7.5H11V6.5C11 5.95 10.55 5.5 10 5.5C9.45 5.5 9 5.95 9 6.5V7.5H8C6.89 7.5 6.01 8.4 6.01 9.5L6 23.5C6 24.6 6.89 25.5 8 25.5H22C23.1 25.5 24 24.6 24 23.5V9.5C24 8.4 23.1 7.5 22 7.5ZM22 22.5C22 23.05 21.55 23.5 21 23.5H9C8.45 23.5 8 23.05 8 22.5V12.5H22V22.5ZM10 14.5H12V16.5H10V14.5ZM14 14.5H16V16.5H14V14.5ZM18 14.5H20V16.5H18V14.5Z" fill="#ADB8CC"/>
</svg>
