<svg width="30" height="31" viewBox="0 0 30 31" fill="none" xmlns="http://www.w3.org/2000/svg">
<path fill-rule="evenodd" clip-rule="evenodd" d="M18.5006 17.5006H17.7106L17.4306 17.2306C18.6306 15.8306 19.2506 13.9206 18.9106 11.8906C18.4406 9.11063 16.1206 6.89063 13.3206 6.55063C9.09063 6.03063 5.53063 9.59063 6.05063 13.8206C6.39063 16.6206 8.61063 18.9406 11.3906 19.4106C13.4206 19.7506 15.3306 19.1306 16.7306 17.9306L17.0006 18.2106V19.0006L21.2506 23.2506C21.6606 23.6606 22.3306 23.6606 22.7406 23.2506C23.1506 22.8406 23.1506 22.1706 22.7406 21.7606L18.5006 17.5006ZM12.5006 17.5006C10.0106 17.5006 8.00063 15.4906 8.00063 13.0006C8.00063 10.5106 10.0106 8.50063 12.5006 8.50063C14.9906 8.50063 17.0006 10.5106 17.0006 13.0006C17.0006 15.4906 14.9906 17.5006 12.5006 17.5006Z" fill="#C3CAD9"/>
</svg>
