<svg width="25" height="25" viewBox="0 0 25 25" fill="none" xmlns="http://www.w3.org/2000/svg">
<path d="M12.1667 21.5C12.3157 21.5 12.5391 21.4499 12.7459 21.3329C17.5119 18.7182 19.1667 17.5069 19.1667 14.4661V8.15897C19.1667 7.15651 18.7779 6.7973 17.9504 6.43808C17.032 6.04545 13.9457 4.95946 13.0438 4.65037C12.7708 4.55848 12.4481 4.5 12.1667 4.5C11.8854 4.5 11.5627 4.57518 11.2897 4.65037C10.3878 4.90934 7.3015 6.05381 6.38306 6.43808C5.55564 6.78894 5.16675 7.15651 5.16675 8.15897V14.4661C5.16675 17.5069 6.82987 18.7015 11.5793 21.3329C11.7944 21.4499 12.0178 21.5 12.1667 21.5ZM12.6136 6.18747C13.6975 6.62187 16.0556 7.4656 17.2968 7.90835C17.5285 8.00025 17.5864 8.12555 17.5864 8.42629V14.157C17.5864 16.6047 16.3701 17.2646 12.6384 19.5369C12.4067 19.6789 12.2909 19.729 12.175 19.729V6.09558C12.2909 6.09558 12.415 6.12064 12.6136 6.18747Z" fill="#717171"/>
</svg>
