<svg width="14" height="15" viewBox="0 0 14 15" fill="none" xmlns="http://www.w3.org/2000/svg">
<path d="M6.99683 7.23242C7.16675 7.23242 7.30151 7.17969 7.40698 7.06836L9.80933 4.64844C9.93823 4.51953 9.99683 4.37891 9.99683 4.21484C9.99683 4.05664 9.93237 3.9043 9.80933 3.78711L7.40698 1.34375C7.30151 1.22656 7.16675 1.16797 6.99683 1.16797C6.68042 1.16797 6.42847 1.43164 6.42847 1.75391C6.42847 1.91211 6.48706 2.04102 6.58667 2.15234L7.98706 3.52344C7.71167 3.48242 7.43042 3.45898 7.14917 3.45898C4.24878 3.45898 1.92847 5.7793 1.92847 8.68555C1.92847 11.5918 4.26636 13.9297 7.16675 13.9297C10.073 13.9297 12.405 11.5918 12.405 8.68555C12.405 8.33398 12.1589 8.08203 11.8074 8.08203C11.4675 8.08203 11.239 8.33398 11.239 8.68555C11.239 10.9473 9.42847 12.7637 7.16675 12.7637C4.91089 12.7637 3.09448 10.9473 3.09448 8.68555C3.09448 6.40625 4.89331 4.60156 7.14917 4.60156C7.53003 4.60156 7.88159 4.63086 8.19214 4.68359L6.59253 6.26562C6.48706 6.37109 6.42847 6.5 6.42847 6.6582C6.42847 6.98047 6.68042 7.23242 6.99683 7.23242Z" fill="#787878"/>
</svg>
