<svg width="98" height="25" viewBox="0 0 98 25" fill="none" xmlns="http://www.w3.org/2000/svg">
<g clip-path="url(#clip0_1_9438)">
<path d="M4.73096 21.0142H18.9336C20.7349 21.0142 21.6729 20.0845 21.6729 18.3081V8.20605C21.6729 6.42969 20.7349 5.5 18.9336 5.5H4.73096C2.93799 5.5 2 6.42139 2 8.20605V18.3081C2 20.0845 2.93799 21.0142 4.73096 21.0142ZM4.83887 19.3623C4.0752 19.3623 3.65186 18.9639 3.65186 18.1587V8.35547C3.65186 7.55029 4.0752 7.15186 4.83887 7.15186H8.62402V19.3623H4.83887ZM18.8257 7.15186C19.5894 7.15186 20.0127 7.55029 20.0127 8.35547V18.1587C20.0127 18.9639 19.5894 19.3623 18.8257 19.3623H10.1929V7.15186H18.8257ZM6.99707 10.1899C7.2959 10.1899 7.54492 9.93262 7.54492 9.65039C7.54492 9.36816 7.2959 9.11914 6.99707 9.11914H5.29541C4.99658 9.11914 4.74756 9.36816 4.74756 9.65039C4.74756 9.93262 4.99658 10.1899 5.29541 10.1899H6.99707ZM6.99707 12.4229C7.2959 12.4229 7.54492 12.1738 7.54492 11.8833C7.54492 11.6011 7.2959 11.3521 6.99707 11.3521H5.29541C4.99658 11.3521 4.74756 11.6011 4.74756 11.8833C4.74756 12.1738 4.99658 12.4229 5.29541 12.4229H6.99707ZM6.99707 14.6475C7.2959 14.6475 7.54492 14.4067 7.54492 14.1162C7.54492 13.834 7.2959 13.5933 6.99707 13.5933H5.29541C4.99658 13.5933 4.74756 13.834 4.74756 14.1162C4.74756 14.4067 4.99658 14.6475 5.29541 14.6475H6.99707Z" fill="#717171"/>
<path d="M53.3984 19.5938L47.3203 13.6484C47.1094 13.4375 47 13.2031 47 12.9297C47 12.6562 47.1094 12.4062 47.3281 12.2031L53.4062 6.26562C53.5781 6.09375 53.7969 6 54.0469 6C54.5703 6 54.9766 6.40625 54.9766 6.92188C54.9766 7.17188 54.875 7.41406 54.6953 7.59375L49.2266 12.9219L54.6953 18.2656C54.875 18.4453 54.9766 18.6797 54.9766 18.9375C54.9766 19.4531 54.5703 19.8594 54.0469 19.8594C53.7969 19.8594 53.5781 19.7656 53.3984 19.5938Z" fill="#717171"/>
<path d="M83.4297 19.8594C83.6875 19.8594 83.8984 19.7656 84.0781 19.5938L90.1562 13.6562C90.3672 13.4375 90.4766 13.2109 90.4766 12.9297C90.4766 12.6562 90.375 12.4141 90.1562 12.2109L84.0781 6.26562C83.8984 6.09375 83.6875 6 83.4297 6C82.9062 6 82.5 6.40625 82.5 6.92188C82.5 7.17188 82.6094 7.41406 82.7812 7.59375L88.2578 12.9375L82.7812 18.2656C82.6016 18.4531 82.5 18.6797 82.5 18.9375C82.5 19.4531 82.9062 19.8594 83.4297 19.8594Z" fill="#BDBCBC"/>
</g>
<defs>
<clipPath id="clip0_1_9438">
<rect width="98" height="24" fill="white" transform="translate(0 0.5)"/>
</clipPath>
</defs>
</svg>
