<svg width="30" height="31" viewBox="0 0 30 31" fill="none" xmlns="http://www.w3.org/2000/svg">
<path fill-rule="evenodd" clip-rule="evenodd" d="M20.8925 8.80249C20.7057 8.61523 20.452 8.51 20.1875 8.51C19.923 8.51 19.6693 8.61523 19.4825 8.80249L14.5925 13.6825L9.7025 8.79249C9.51567 8.60523 9.26202 8.5 8.9975 8.5C8.73298 8.5 8.47933 8.60523 8.2925 8.79249C7.9025 9.18249 7.9025 9.81249 8.2925 10.2025L13.1825 15.0925L8.2925 19.9825C7.9025 20.3725 7.9025 21.0025 8.2925 21.3925C8.6825 21.7825 9.3125 21.7825 9.7025 21.3925L14.5925 16.5025L19.4825 21.3925C19.8725 21.7825 20.5025 21.7825 20.8925 21.3925C21.2825 21.0025 21.2825 20.3725 20.8925 19.9825L16.0025 15.0925L20.8925 10.2025C21.2725 9.82249 21.2725 9.18249 20.8925 8.80249Z" fill="#C3CAD9"/>
</svg>
