<svg width="96" height="25" viewBox="0 0 96 25" fill="none" xmlns="http://www.w3.org/2000/svg">
<g clip-path="url(#clip0_1_9431)">
<path d="M12.0083 14.8736C12.4309 14.8736 12.779 14.5253 12.779 14.1107V5.76757L12.721 4.54016L13.2265 5.14557L14.3867 6.38127C14.5193 6.53055 14.7099 6.60519 14.9006 6.60519C15.2818 6.60519 15.5967 6.33151 15.5967 5.94173C15.5967 5.7344 15.5138 5.58512 15.3729 5.44413L12.5967 2.76539C12.3978 2.56635 12.2072 2.5 12.0083 2.5C11.8011 2.5 11.6188 2.56635 11.4199 2.76539L8.63536 5.44413C8.49448 5.58512 8.4116 5.7344 8.4116 5.94173C8.4116 6.33151 8.71823 6.60519 9.09945 6.60519C9.29006 6.60519 9.48895 6.53055 9.62155 6.38127L10.7818 5.14557L11.2956 4.53186L11.2293 5.76757V14.1107C11.2293 14.5253 11.5773 14.8736 12.0083 14.8736ZM7.22652 21.5H16.7735C18.5718 21.5 19.5 20.5711 19.5 18.7964V10.644C19.5 8.86927 18.5718 7.94042 16.7735 7.94042H14.5359V9.59079H16.6657C17.4199 9.59079 17.8508 9.98887 17.8508 10.785V18.6471C17.8508 19.4433 17.4199 19.8413 16.6657 19.8413H7.33425C6.57182 19.8413 6.14917 19.4433 6.14917 18.6471V10.785C6.14917 9.98887 6.57182 9.59079 7.33425 9.59079H9.48895V7.94042H7.22652C5.43646 7.94042 4.5 8.86098 4.5 10.644V18.7964C4.5 20.5711 5.43646 21.5 7.22652 21.5Z" fill="#717171"/>
<path d="M47 19.5C47.5269 19.5 47.9534 19.0723 47.9534 18.587V13.4377H53.055C53.5651 13.4377 54 13.0182 54 12.5C54 11.99 53.5651 11.5623 53.055 11.5623H47.9534V6.41304C47.9534 5.91951 47.5269 5.5 47 5.5C46.4815 5.5 46.0466 5.91951 46.0466 6.41304V11.5623H40.945C40.4516 11.5623 40 11.99 40 12.5C40 13.0182 40.4516 13.4377 40.945 13.4377H46.0466V18.587C46.0466 19.0723 46.4815 19.5 47 19.5Z" fill="#717171"/>
<path d="M77.7278 17.5347H79.1373V18.7867C79.1373 20.561 80.0742 21.4896 81.865 21.4896H90.2722C92.0631 21.4896 93 20.561 93 18.7867V10.3215C93 8.54717 92.0631 7.61857 90.2722 7.61857H88.8627V6.3749C88.8627 4.6006 87.9258 3.672 86.135 3.672H77.7278C75.9286 3.672 75 4.6006 75 6.3749V14.8318C75 16.6144 75.9286 17.5347 77.7278 17.5347ZM77.8356 15.8848C77.0728 15.8848 76.6499 15.4868 76.6499 14.6826V6.52414C76.6499 5.7199 77.0728 5.33022 77.8356 5.33022H86.0272C86.7817 5.33022 87.2128 5.7199 87.2128 6.52414V7.61857H81.865C80.0742 7.61857 79.1373 8.54717 79.1373 10.3215V15.8848H77.8356ZM81.9728 19.8314C81.21 19.8314 80.7955 19.4334 80.7955 18.6375V10.4707C80.7955 9.67476 81.21 9.27679 81.9728 9.27679H90.1644C90.9272 9.27679 91.3501 9.67476 91.3501 10.4707V18.6375C91.3501 19.4334 90.9272 19.8314 90.1644 19.8314H81.9728Z" fill="#717171"/>
</g>
<defs>
<clipPath id="clip0_1_9431">
<rect width="96" height="24" fill="white" transform="translate(0 0.5)"/>
</clipPath>
</defs>
</svg>
