<svg width="242" height="63" viewBox="0 0 242 63" fill="none" xmlns="http://www.w3.org/2000/svg">
<rect x="1" y="1.5" width="240" height="60" rx="30" stroke="#EDEFF2" stroke-width="2"/>
<path fill-rule="evenodd" clip-rule="evenodd" d="M48.2037 34.75L45.6637 34.46C45.0537 34.39 44.4537 34.6 44.0237 35.03L42.1837 36.87C39.3537 35.43 37.0337 33.12 35.5937 30.28L37.4437 28.43C37.8737 28 38.0837 27.4 38.0137 26.79L37.7237 24.27C37.6037 23.26 36.7537 22.5 35.7337 22.5H34.0037C32.8737 22.5 31.9337 23.44 32.0037 24.57C32.5337 33.11 39.3637 39.93 47.8937 40.46C49.0237 40.53 49.9637 39.59 49.9637 38.46V36.73C49.9737 35.72 49.2137 34.87 48.2037 34.75Z" fill="#FF6633"/>
<path fill-rule="evenodd" clip-rule="evenodd" d="M89 23.5H73C71.9 23.5 71 24.4 71 25.5V37.5C71 38.6 71.9 39.5 73 39.5H89C90.1 39.5 91 38.6 91 37.5V25.5C91 24.4 90.1 23.5 89 23.5ZM88.6 27.75L82.06 31.84C81.41 32.25 80.59 32.25 79.94 31.84L73.4 27.75C73.15 27.59 73 27.32 73 27.03C73 26.36 73.73 25.96 74.3 26.31L81 30.5L87.7 26.31C88.27 25.96 89 26.36 89 27.03C89 27.32 88.85 27.59 88.6 27.75Z" fill="#29CC39"/>
<path fill-rule="evenodd" clip-rule="evenodd" d="M130 23.5H112C110.9 23.5 110 24.4 110 25.5V38.5C110 39.6 110.9 40.5 112 40.5H130C131.1 40.5 132 39.6 132 38.5V25.5C132 24.4 131.1 23.5 130 23.5ZM130 37.5C130 38.05 129.55 38.5 129 38.5H121V25.5H129C129.55 25.5 130 25.95 130 26.5V37.5ZM128.25 29H122.75C122.34 29 122 29.34 122 29.75C122 30.16 122.34 30.5 122.75 30.5H128.25C128.66 30.5 129 30.16 129 29.75C129 29.34 128.66 29 128.25 29ZM128.25 31.5H122.75C122.34 31.5 122 31.84 122 32.25C122 32.66 122.34 33 122.75 33H128.25C128.66 33 129 32.66 129 32.25C129 31.84 128.66 31.5 128.25 31.5ZM128.25 34H122.75C122.34 34 122 34.34 122 34.75C122 35.16 122.34 35.5 122.75 35.5H128.25C128.66 35.5 129 35.16 129 34.75C129 34.34 128.66 34 128.25 34Z" fill="#8833FF"/>
<path fill-rule="evenodd" clip-rule="evenodd" d="M158.5 34.55L164.55 39.0125C165.237 39.3875 165.737 39.2 165.912 38.375L168.375 26.775C168.625 25.7625 167.987 25.3125 167.325 25.6125L152.875 31.1875C151.887 31.5875 151.9 32.1375 152.7 32.375L156.412 33.5375L165 28.125C165.4 27.875 165.775 28.0125 165.475 28.2875L158.5 34.55Z" fill="#33BFFF"/>
<path fill-rule="evenodd" clip-rule="evenodd" d="M200.997 21.5C195.484 21.5 191 25.9843 191 31.4971C191 33.6834 191.705 35.711 192.904 37.3568L191.658 41.0711L195.502 39.843C197.083 40.8891 198.969 41.4944 201.003 41.4944C206.516 41.4944 211 37.0099 211 31.4973C211 25.9844 206.516 21.5002 201.003 21.5002H200.997V21.5ZM198.205 26.5781C198.011 26.1138 197.864 26.0962 197.571 26.0843C197.459 26.0771 197.347 26.0732 197.236 26.0727C196.854 26.0727 196.454 26.1843 196.213 26.4311C195.919 26.7308 195.19 27.4302 195.19 28.8643C195.19 30.2984 196.236 31.6854 196.377 31.8794C196.524 32.0732 198.417 35.0588 201.356 36.2756C203.653 37.2277 204.335 37.1395 204.858 37.0278C205.622 36.8633 206.58 36.2988 206.821 35.6173C207.062 34.9354 207.062 34.3535 206.992 34.2301C206.921 34.1067 206.727 34.0364 206.433 33.8893C206.14 33.7423 204.711 33.037 204.441 32.943C204.176 32.8431 203.924 32.8785 203.724 33.1606C203.442 33.5544 203.166 33.9541 202.942 34.195C202.766 34.3831 202.478 34.4066 202.237 34.3066C201.914 34.1716 201.009 33.8539 199.892 32.8607C199.028 32.0909 198.44 31.133 198.27 30.8451C198.1 30.5513 198.252 30.3806 198.387 30.2221C198.534 30.0398 198.675 29.9106 198.822 29.74C198.969 29.5697 199.052 29.4815 199.146 29.2816C199.246 29.0877 199.175 28.8878 199.105 28.7408C199.034 28.5939 198.446 27.1598 198.205 26.5781Z" fill="#29CC39"/>
</svg>
