<svg width="30" height="31" viewBox="0 0 30 31" fill="none" xmlns="http://www.w3.org/2000/svg">
<path fill-rule="evenodd" clip-rule="evenodd" d="M19 14.5C20.66 14.5 21.99 13.16 21.99 11.5C21.99 9.84 20.66 8.5 19 8.5C17.34 8.5 16 9.84 16 11.5C16 13.16 17.34 14.5 19 14.5ZM11 14.5C12.66 14.5 13.99 13.16 13.99 11.5C13.99 9.84 12.66 8.5 11 8.5C9.34 8.5 8 9.84 8 11.5C8 13.16 9.34 14.5 11 14.5ZM11 16.5C8.67 16.5 4 17.67 4 20V21.5C4 22.05 4.45 22.5 5 22.5H17C17.55 22.5 18 22.05 18 21.5V20C18 17.67 13.33 16.5 11 16.5ZM19 16.5C18.71 16.5 18.38 16.52 18.03 16.55C18.05 16.56 18.06 16.58 18.07 16.59C19.21 17.42 20 18.53 20 20V21.5C20 21.85 19.93 22.19 19.82 22.5H25C25.55 22.5 26 22.05 26 21.5V20C26 17.67 21.33 16.5 19 16.5Z" fill="#C3CAD9"/>
</svg>
