<svg width="623" height="29" viewBox="0 0 623 29" fill="none" xmlns="http://www.w3.org/2000/svg">
<path d="M0.166748 10.1C0.166748 6.73969 0.166748 5.05953 0.820709 3.77606C1.39595 2.64708 2.31383 1.7292 3.4428 1.15396C4.72628 0.5 6.40643 0.5 9.76675 0.5H612.567C615.927 0.5 617.607 0.5 618.891 1.15396C620.02 1.7292 620.938 2.64708 621.513 3.77606C622.167 5.05953 622.167 6.73969 622.167 10.1V18.9C622.167 22.2603 622.167 23.9405 621.513 25.2239C620.938 26.3529 620.02 27.2708 618.891 27.846C617.607 28.5 615.927 28.5 612.567 28.5H9.76671C6.40642 28.5 4.72628 28.5 3.4428 27.846C2.31383 27.2708 1.39595 26.3529 0.820709 25.2239C0.166748 23.9405 0.166748 22.2603 0.166748 18.9V10.1Z" fill="#F0F0F0"/>
</svg>
